<svg xmlns="http://www.w3.org/2000/svg" xmlns:xlink="http://www.w3.org/1999/xlink" width="600" height="548.781" viewBox="0 0 600 548.781"><defs><style>.a{fill:url(#a);}.b{fill:url(#b);}.c{fill:url(#c);}.d{clip-path:url(#e);}.e{opacity:0.8;}.al,.e,.l,.o,.p{mix-blend-mode:soft-light;}.ai,.al,.e,.l,.o,.p,.w{isolation:isolate;}.al,.f,.p{fill:#fff;}.g{clip-path:url(#g);}.h{fill:#d8dee8;}.i{fill:url(#h);}.j{fill:url(#i);}.k{fill:url(#j);}.m{fill:url(#k);}.n{fill:url(#l);}.o,.p{opacity:0.5;}.q{fill:url(#m);}.r{fill:url(#n);}.s{fill:url(#o);}.t{fill:url(#p);}.u{fill:url(#q);}.v{fill:url(#r);}.w{opacity:0.3;fill:url(#s);}.ai,.w{mix-blend-mode:multiply;}.x{fill:url(#t);}.y{fill:url(#u);}.z{fill:url(#v);}.aa{fill:url(#w);}.ab{fill:url(#x);}.ac{fill:url(#y);}.ad{fill:url(#z);}.ae{fill:url(#aa);}.af{fill:url(#ab);}.ag{fill:url(#ac);}.ah{fill:url(#ad);}.ai{opacity:0.1;fill:url(#ae);}.aj{fill:url(#ag);}.ak{fill:url(#ah);}.al{opacity:0.4;}</style><linearGradient id="a" x1="0.294" y1="0.988" x2="0.959" y2="-0.074" gradientUnits="objectBoundingBox"><stop offset="0.004" stop-color="#e38ddd"/><stop offset="1" stop-color="#9571f6"/></linearGradient><linearGradient id="b" y1="0.5" x2="1" y2="0.5" gradientUnits="objectBoundingBox"><stop offset="0" stop-color="#ff9085"/><stop offset="1" stop-color="#fb6fbb"/></linearGradient><linearGradient id="c" x1="0.541" y1="0.199" x2="0.342" y2="2.026" gradientUnits="objectBoundingBox"><stop offset="0" stop-color="#d6eafb"/><stop offset="0.995" stop-color="#fff"/><stop offset="1" stop-color="#cce9ff"/></linearGradient><clipPath id="e"><path class="a" d="M2205.483,647.5c-6.05-5.007-15.229-7.732-22.988-8.282-55-3.9-63.024,111.063-54.594,136.758s2.967,34.128-40.347,47.572-22.535,39.323-17.255,54.457,15.734,27.92-15.843,42.958-20.6,24.356-20.6,24.356,58.232,59.564,55.015,40.494,2.612-47.865,54.82-50.053c22.488-.942,56.922-11.669,64.551-35.748,1.775-5.607,3.011-14.172,1.66-19.975-1.873-8.051-7.158-14.391-10.092-21.971-6.838-17.657,10.311-30.588,20.18-42.39,5.153-6.161,10.3-12.481,14.248-19.505,8.191-14.585,5.126-30.228-3.795-43.673-4.277-6.447-10.222-13.291-12.087-20.977-2-8.26-.258-19.547.219-28.048.373-6.665,1.008-13.3.634-19.982C2218.509,671.054,2215.6,655.87,2205.483,647.5Z" transform="translate(-2032.007 -639.121)"/></clipPath><clipPath id="g"><path class="b" d="M2076.683,1501.372c-4-6.758-11.714-12.43-18.829-15.572-50.436-22.274-96.886,83.185-97.648,110.213s-8.755,33.119-54.064,31.111-34.512,29.376-34.664,45.405,5.358,31.6-29.443,35.064-27.629,15.949-27.629,15.949,34.641,75.755,38.068,56.721,18.654-44.159,68.523-28.55c21.48,6.722,57.515,8.281,72.839-11.8,3.568-4.675,7.629-12.316,8.321-18.234.961-8.21-1.865-15.967-2.062-24.09-.458-18.93,20.053-25.3,33.334-33.062,6.933-4.054,13.918-8.259,20.008-13.535,12.644-10.953,15.051-26.71,11.206-42.38-1.843-7.516-5.123-15.963-4.276-23.832.909-8.451,6.371-18.482,9.7-26.317,2.607-6.141,5.45-12.178,7.359-18.593C2080.967,1527.943,2083.367,1512.671,2076.683,1501.372Z" transform="translate(-1813.794 -1482.734)"/></clipPath><linearGradient id="h" x1="-0.084" y1="0.477" x2="-0.366" y2="0.496" gradientUnits="objectBoundingBox"><stop offset="0" stop-color="#444b8c"/><stop offset="0.996" stop-color="#26264f"/></linearGradient><linearGradient id="i" x1="0.197" y1="0.034" x2="-0.498" y2="1.514" xlink:href="#h"/><linearGradient id="j" x1="-22.271" y1="-1.493" x2="-51.489" y2="78.648" gradientUnits="objectBoundingBox"><stop offset="0" stop-color="#ffc444"/><stop offset="0.996" stop-color="#f36f56"/></linearGradient><linearGradient id="k" x1="10.206" y1="10.271" x2="9.137" y2="11.34" gradientUnits="objectBoundingBox"><stop offset="0" stop-color="#311944"/><stop offset="1" stop-color="#893976"/></linearGradient><linearGradient id="l" x1="0.165" y1="0.812" x2="1.048" y2="-0.012" xlink:href="#b"/><linearGradient id="m" x1="-47.876" y1="0.03" x2="-44.561" y2="1.813" xlink:href="#j"/><linearGradient id="n" x1="-12.57" y1="-0.747" x2="-12.581" y2="-7.554" gradientUnits="objectBoundingBox"><stop offset="0" stop-color="#aa80f9"/><stop offset="0.996" stop-color="#6165d7"/></linearGradient><linearGradient id="o" x1="-145.481" y1="8.275" x2="-145.419" y2="3.978" xlink:href="#j"/><linearGradient id="p" x1="-9.06" y1="-1.686" x2="-9.071" y2="-8.493" xlink:href="#n"/><linearGradient id="q" x1="-133.551" y1="7.209" x2="-133.489" y2="2.913" xlink:href="#j"/><linearGradient id="r" x1="-6.282" y1="0.162" x2="-5.66" y2="0.831" xlink:href="#k"/><linearGradient id="s" x1="-26.868" y1="0.746" x2="-25.838" y2="0.746" xlink:href="#k"/><linearGradient id="t" x1="-19.662" y1="0.727" x2="-18.453" y2="0.727" xlink:href="#k"/><linearGradient id="u" x1="-3.596" y1="0.282" x2="-3.111" y2="3.745" xlink:href="#n"/><linearGradient id="v" x1="-8.053" y1="2.459" x2="-7.655" y2="4.281" xlink:href="#n"/><linearGradient id="w" x1="-8.249" y1="1.943" x2="-9.577" y2="0.482" xlink:href="#n"/><linearGradient id="x" x1="-6.207" y1="-2.638" x2="-7.363" y2="1.127" xlink:href="#j"/><linearGradient id="y" x1="-13.363" y1="2.885" x2="-12.639" y2="5.094" xlink:href="#n"/><linearGradient id="z" x1="-32.364" y1="30.789" x2="-32.364" y2="29.393" xlink:href="#j"/><linearGradient id="aa" x1="-44.72" y1="3.637" x2="-45.438" y2="2.051" gradientUnits="objectBoundingBox"><stop offset="0" stop-color="#444b8c"/><stop offset="0.996" stop-color="#3e4177"/></linearGradient><linearGradient id="ab" x1="-84.021" y1="57.263" x2="-82.893" y2="54.886" xlink:href="#j"/><linearGradient id="ac" x1="0" y1="0.5" x2="1" y2="0.5" xlink:href="#k"/><linearGradient id="ad" x1="0.618" y1="2.099" x2="0.497" y2="0.43" gradientUnits="objectBoundingBox"><stop offset="0.004" stop-color="#f36f56"/><stop offset="1" stop-color="#ffc444"/></linearGradient><linearGradient id="ae" x1="0" y1="0.5" x2="1" y2="0.5" xlink:href="#ad"/><linearGradient id="ag" x1="0.583" y1="-0.668" x2="0.196" y2="4.766" xlink:href="#ad"/><linearGradient id="ah" x1="0.435" y1="-1.462" x2="0.566" y2="2.496" xlink:href="#ad"/></defs><g transform="translate(10616 -12006)"><g transform="translate(-10616 12006)"><g transform="translate(0 0)"><path class="c" d="M365.93,505.474C339.715,600.251,326.284,721.6,412.563,810.9S780.725,876.889,882.9,794.88s61.7-270.517,9.392-344.38-121.239-185.574-249.8-101.052S400.266,381.338,365.93,505.474Z" transform="translate(-346.104 -319.186)"/></g></g><g transform="translate(-10578.968 12049.087)"><g transform="translate(233.782 17.322)"><g transform="translate(41.141 0)"><path class="a" d="M2205.483,647.5c-6.05-5.007-15.229-7.732-22.988-8.282-55-3.9-63.024,111.063-54.594,136.758s2.967,34.128-40.347,47.572-22.535,39.323-17.255,54.457,15.734,27.92-15.843,42.958-20.6,24.356-20.6,24.356,58.232,59.564,55.015,40.494,2.612-47.865,54.82-50.053c22.488-.942,56.922-11.669,64.551-35.748,1.775-5.607,3.011-14.172,1.66-19.975-1.873-8.051-7.158-14.391-10.092-21.971-6.838-17.657,10.311-30.588,20.18-42.39,5.153-6.161,10.3-12.481,14.248-19.505,8.191-14.585,5.126-30.228-3.795-43.673-4.277-6.447-10.222-13.291-12.087-20.977-2-8.26-.258-19.547.219-28.048.373-6.665,1.008-13.3.634-19.982C2218.509,671.054,2215.6,655.87,2205.483,647.5Z" transform="translate(-2032.007 -639.121)"/><g class="d" transform="translate(0)"><g class="e" transform="translate(-3.82 -14.305)"><path class="f" d="M2012.826,917.178a.813.813,0,0,1-.651-1.486,392.4,392.4,0,0,0,52.107-34.261c25.2-19.569,58.027-50.425,71.318-86.3,11.1-29.959,21.225-79.486,27.773-135.881,5.875-50.569,6.8-87.971,4.308-94.914a.813.813,0,0,1,1.531-.55c2.92,8.122,1.067,50.138-4.217,95.652-6.566,56.518-16.722,106.182-27.865,136.258-13.427,36.239-46.5,67.331-71.869,87.034a394.008,394.008,0,0,1-52.328,34.4.817.817,0,0,1-.108.046Z" transform="translate(-2011.74 -563.251)"/><g transform="translate(102.94 35.734)"><path class="f" d="M2606.314,822.849a.734.734,0,0,1-1-.386c-.2-.556-20.705-55.716-47.145-68.17a.782.782,0,0,1-.38-1.058.813.813,0,0,1,1.087-.377c27.04,12.741,47.119,66.741,47.962,69.038a.733.733,0,0,1-.516.951Z" transform="translate(-2557.706 -752.777)"/></g><g transform="translate(140.458 130.911)"><path class="f" d="M2757.8,1296.428a.813.813,0,0,1-.793-1.393,257.892,257.892,0,0,1,33.871-22.9c25.167-14.04,44.456-17.959,57.323-11.648a.813.813,0,1,1-.716,1.46c-29.613-14.517-88.849,33.85-89.444,34.341a.8.8,0,0,1-.241.138Z" transform="translate(-2756.705 -1257.566)"/></g><g transform="translate(36.018 191.252)"><path class="f" d="M2242.578,1686.864a.814.814,0,0,1-1.089-.753,310.138,310.138,0,0,0-5.376-48.84c-4.542-22.863-13.921-51.5-32.806-58.1a.813.813,0,0,1,.537-1.536c15.748,5.5,27.143,25.468,33.868,59.341a311.87,311.87,0,0,1,5.4,49.11.814.814,0,0,1-.538.778Z" transform="translate(-2202.762 -1577.589)"/></g><g transform="translate(108.346 217.566)"><path class="f" d="M2587.464,1761.876a.814.814,0,0,1-.759-1.42c2.618-1.936,64.394-47.352,88.486-43.015a.813.813,0,1,1-.288,1.6c-23.41-4.216-86.595,42.256-87.23,42.722a.817.817,0,0,1-.209.111Z" transform="translate(-2586.376 -1717.15)"/></g></g></g></g><g transform="translate(0 157.878)"><path class="b" d="M2076.683,1501.372c-4-6.758-11.714-12.43-18.829-15.572-50.436-22.274-96.886,83.185-97.648,110.213s-8.755,33.119-54.064,31.111-34.512,29.376-34.664,45.405,5.358,31.6-29.443,35.064-27.629,15.949-27.629,15.949,34.641,75.755,38.068,56.721,18.654-44.159,68.523-28.55c21.48,6.722,57.515,8.281,72.839-11.8,3.568-4.675,7.629-12.316,8.321-18.234.961-8.21-1.865-15.967-2.062-24.09-.458-18.93,20.053-25.3,33.334-33.062,6.933-4.054,13.918-8.259,20.008-13.535,12.644-10.953,15.051-26.71,11.206-42.38-1.843-7.516-5.123-15.963-4.276-23.832.909-8.451,6.371-18.482,9.7-26.317,2.607-6.141,5.45-12.178,7.359-18.593C2080.967,1527.943,2083.367,1512.671,2076.683,1501.372Z" transform="translate(-1813.794 -1482.734)"/><g class="g" transform="translate(0 0)"><g class="e" transform="translate(-15.826 -9.722)"><path class="f" d="M1730.688,1711.615a.813.813,0,0,1-.109-1.619,392.406,392.406,0,0,0,60.627-14.608c30.333-9.889,71.667-27.816,96.312-57.074,20.583-24.435,46.869-67.615,72.116-118.466,22.64-45.6,36.167-80.478,36.167-87.858a.814.814,0,1,1,1.627,0c0,8.631-15.962,47.541-36.337,88.581-25.3,50.963-51.666,94.26-72.329,118.793-24.9,29.557-66.535,47.627-97.08,57.581a393.994,393.994,0,0,1-60.881,14.666.793.793,0,0,1-.113,0Z" transform="translate(-1729.875 -1431.177)"/><g transform="translate(204.012 15.721)"><path class="f" d="M2834.217,1596.87a.795.795,0,0,1-.813-.786c0-.593-.631-59.478-21.3-80.144a.81.81,0,1,1,1.149-1.142c21.138,21.138,21.757,78.828,21.773,81.273a.794.794,0,0,1-.808.8Z" transform="translate(-2811.872 -1514.559)"/></g><g transform="translate(194.487 140.817)"><path class="f" d="M2762.2,2191.877a.813.813,0,0,1-.275-1.579,257.817,257.817,0,0,1,39.622-10.083c28.432-4.7,47.906-1.858,57.883,8.433a.813.813,0,1,1-1.168,1.132c-22.954-23.681-95.062,1.79-95.786,2.05a.8.8,0,0,1-.276.048Z" transform="translate(-2761.381 -2178.017)"/></g><g transform="translate(88.403 139.406)"><path class="f" d="M2199.549,2286.615a.815.815,0,0,1-.769-1.077,310.1,310.1,0,0,0,11.467-47.777c3.463-23.051,4.328-53.175-11.21-65.774a.813.813,0,0,1,1.024-1.263c12.957,10.506,16.923,33.15,11.792,67.3a311.912,311.912,0,0,1-11.534,48.042A.813.813,0,0,1,2199.549,2286.615Z" transform="translate(-2198.735 -2170.542)"/></g><g transform="translate(132.962 215.027)"><path class="f" d="M2435.881,2587.465a.813.813,0,0,1-.234-1.592c3.116-.935,76.619-22.77,97.821-10.541a.814.814,0,0,1-.813,1.409c-20.6-11.886-95.786,10.458-96.54,10.685a.823.823,0,0,1-.234.039Z" transform="translate(-2435.066 -2571.621)"/></g></g></g></g></g><g transform="translate(160.696 0)"><g transform="translate(129.887 3.236)"><path class="h" d="M2146.1,566.2l-.581,4.159a32.669,32.669,0,0,0-5.671.752l-1.572-3.88a2.062,2.062,0,0,0-2.7-1.122l-6.668,2.75a2.1,2.1,0,0,0-1.161,2.718l1.581,3.929a33.63,33.63,0,0,0-4.564,3.483l-3.353-2.6a2.1,2.1,0,0,0-2.933.388l-4.48,5.732a2.087,2.087,0,0,0,.339,2.933l3.362,2.614a33.527,33.527,0,0,0-2.255,5.311l-4.267-.56a2.145,2.145,0,0,0-2.384,1.817l-1.072,7.23a2.068,2.068,0,0,0,1.769,2.371l4.28.561a33.148,33.148,0,0,0,.642,5.74l-4.016,1.675a2.171,2.171,0,0,0-1.191,2.782l2.68,6.8a2.07,2.07,0,0,0,2.74,1.15l4.019-1.682a32.97,32.97,0,0,0,3.442,4.634l-2.677,3.477a2.155,2.155,0,0,0,.346,3.006l5.74,4.5a2.108,2.108,0,0,0,2.975-.405l2.646-3.454a32.341,32.341,0,0,0,5.343,2.246l-.6,4.308a2.116,2.116,0,0,0,1.8,2.413l7.247.951a2.151,2.151,0,0,0,2.389-1.862l.585-4.278a32.616,32.616,0,0,0,5.79-.764l1.589,3.952a2.087,2.087,0,0,0,2.758,1.157l6.758-2.863a2.172,2.172,0,0,0,1.151-2.81l-1.589-3.924a33.712,33.712,0,0,0,4.645-3.611l3.3,2.566a2.088,2.088,0,0,0,2.956-.4l4.425-5.866a2.151,2.151,0,0,0-.39-2.989l-3.273-2.537a33.495,33.495,0,0,0,2.221-5.458l4.093.537a2.1,2.1,0,0,0,2.35-1.833l.928-7.249a2.108,2.108,0,0,0-1.806-2.366l-4.081-.535a33.189,33.189,0,0,0-.752-5.8l3.784-1.585a2.108,2.108,0,0,0,1.125-2.75l-2.764-6.682a2.08,2.08,0,0,0-2.722-1.129l-3.806,1.587a32.916,32.916,0,0,0-3.512-4.583l2.515-3.283a2.084,2.084,0,0,0-.381-2.92l-5.683-4.368a2.079,2.079,0,0,0-2.913.385l-2.535,3.3a32.3,32.3,0,0,0-5.3-2.169l.564-4.125a2.061,2.061,0,0,0-1.776-2.326l-7.1-.931A2.1,2.1,0,0,0,2146.1,566.2Zm-25.042,33.692a26.307,26.307,0,0,1,29.294-22.445,25.866,25.866,0,0,1,22.158,29.194,26.29,26.29,0,0,1-29.332,22.732,25.857,25.857,0,0,1-22.12-29.481Z" transform="translate(-2107.691 -564.395)"/></g><g transform="translate(0)"><path class="h" d="M1478.2,550l-.9,6.431a50.5,50.5,0,0,0-8.769,1.162l-2.43-6a3.188,3.188,0,0,0-4.182-1.735l-10.311,4.248a3.25,3.25,0,0,0-1.795,4.2l2.444,6.075a52.056,52.056,0,0,0-7.058,5.389l-5.184-4.018a3.242,3.242,0,0,0-4.532.6l-6.927,8.863a3.227,3.227,0,0,0,.524,4.542l5.2,4.042a51.8,51.8,0,0,0-3.483,8.211l-6.6-.865a3.315,3.315,0,0,0-3.686,2.809l-1.658,11.183a3.2,3.2,0,0,0,2.735,3.666l6.617.868a51.27,51.27,0,0,0,.994,8.875l-6.209,2.589a3.355,3.355,0,0,0-1.833,4.3l4.137,10.511a3.2,3.2,0,0,0,4.238,1.778l6.213-2.6a50.973,50.973,0,0,0,5.321,7.165l-4.139,5.375a3.331,3.331,0,0,0,.537,4.649l8.875,6.966a3.256,3.256,0,0,0,4.6-.627l4.09-5.339a49.952,49.952,0,0,0,8.26,3.472l-.931,6.665a3.272,3.272,0,0,0,2.783,3.73l11.2,1.467a3.326,3.326,0,0,0,3.7-2.88l.9-6.614a50.453,50.453,0,0,0,8.953-1.181l2.457,6.111a3.228,3.228,0,0,0,4.265,1.789l10.449-4.427a3.357,3.357,0,0,0,1.78-4.345l-2.458-6.067a52.032,52.032,0,0,0,7.182-5.583l5.106,3.97a3.229,3.229,0,0,0,4.57-.623l6.842-9.075a3.326,3.326,0,0,0-.6-4.622l-5.061-3.922a51.831,51.831,0,0,0,3.434-8.438l6.325.83a3.25,3.25,0,0,0,3.633-2.83l1.436-11.207a3.26,3.26,0,0,0-2.792-3.658l-6.309-.825a51.265,51.265,0,0,0-1.162-8.964l5.852-2.45a3.254,3.254,0,0,0,1.742-4.245l-4.274-10.332a3.215,3.215,0,0,0-4.208-1.742l-5.885,2.454a50.98,50.98,0,0,0-5.431-7.083l3.887-5.075a3.223,3.223,0,0,0-.589-4.515l-8.79-6.754a3.214,3.214,0,0,0-4.5.595l-3.913,5.082a49.949,49.949,0,0,0-8.194-3.354l.873-6.382a3.186,3.186,0,0,0-2.745-3.6l-10.982-1.441A3.24,3.24,0,0,0,1478.2,550Zm-38.719,52.094a40.664,40.664,0,0,1,45.293-34.7,39.994,39.994,0,0,1,34.26,45.138c-2.951,22.251-23.264,38.039-45.354,35.142a39.98,39.98,0,0,1-34.2-45.577Z" transform="translate(-1418.813 -547.218)"/></g></g><g transform="translate(150.774 49.77)"><path class="i" d="M1470.958,826.6l-48.035,398.2a10.5,10.5,0,0,0,9.186,11.894L1632.18,1258.6c12.256.761,18.967-5.485,19.724-11.834l50.431-423.356c.752-6.313-5.261-12.031-17.57-12.031l-201.893,4.241A12.715,12.715,0,0,0,1470.958,826.6Z" transform="translate(-1413.548 -811.352)"/><path class="j" d="M1422.062,825.78l-48.3,400.194a10.547,10.547,0,0,0,9.217,11.957l207.418,20.6a12.119,12.119,0,0,0,13.223-10.427l50.714-425.544c.756-6.346-4.02-11.447-10.594-11.336l-209.72,3.529A12.771,12.771,0,0,0,1422.062,825.78Z" transform="translate(-1373.657 -811.217)"/><path class="h" d="M1458.161,952.749l-44.77,370.981a9.833,9.833,0,0,0,8.631,11.151l195.07,18.908a11.3,11.3,0,0,0,12.293-9.731l46.868-393.016c.7-5.908-3.73-10.688-9.836-10.623l-197.071,2.093A11.836,11.836,0,0,0,1458.161,952.749Z" transform="translate(-1405.82 -916.05)"/><path class="k" d="M2205.836,870.3a3.319,3.319,0,0,0,3.426,3.819,4.573,4.573,0,0,0,4.36-3.924,3.319,3.319,0,0,0-3.434-3.819,4.574,4.574,0,0,0-4.353,3.924Z" transform="translate(-2048.889 -855.977)"/><g class="l" transform="translate(53.626 0)"><path class="f" d="M1690.411,1096.933c39.935-73.639,99.591-95.682,117.553-171.575,9.709-41.023,3.094-80.289-8.047-112.885l74.512-1.254c6.574-.111,11.351,4.991,10.594,11.336L1834.309,1248.1a12.119,12.119,0,0,1-13.223,10.427l-163.052-16.193C1656.828,1176.353,1672.608,1129.758,1690.411,1096.933Z" transform="translate(-1657.969 -811.217)"/></g></g><g transform="translate(5.336 32.559)"><g transform="translate(0 3.128)"><path class="m" d="M585.856,807.551c0-39.231,34.223-71.033,75.292-71.027,39.855,0,71.312,30.13,71.312,67.287s-31.454,68.888-71.312,70.925C620.079,876.835,585.856,846.784,585.856,807.551Z" transform="translate(-585.856 -736.524)"/></g><g transform="translate(4.427)"><path class="n" d="M609.337,790.957c0-39.231,33.234-71.033,73.114-71.027,38.7,0,69.246,30.13,69.246,67.287s-30.544,68.888-69.246,70.926C642.57,860.244,609.337,830.19,609.337,790.957Z" transform="translate(-609.337 -719.93)"/></g><g class="o" transform="translate(15.805 11.057)"><path class="f" d="M669.681,838.234c0-32.961,27.921-59.679,61.427-59.671,32.516,0,58.178,25.314,58.178,56.532s-25.665,57.877-58.178,59.589C697.6,896.445,669.681,871.2,669.681,838.234Z" transform="translate(-669.681 -778.563)"/></g><path class="p" d="M746.575,783.624c32.516,0,58.178,25.314,58.178,56.532a57.1,57.1,0,0,1-4.115,21.216,57.41,57.41,0,0,0,6.422-26.28c0-31.218-25.665-56.528-58.178-56.533-25.842,0-48.347,15.9-57.3,38.288A61.941,61.941,0,0,1,746.575,783.624Z" transform="translate(-671.65 -767.504)"/><g transform="translate(49.451 32.232)"><path class="f" d="M848.127,1048.374v28.769c0,8.318,7,14.879,15.6,14.654l21.338-.557a15.623,15.623,0,0,0,15.372-15.307v-28.466Zm19.651,29.741,3.966-12.016a5.187,5.187,0,0,1-2.85-4.616,5.567,5.567,0,0,1,5.528-5.452,5.3,5.3,0,0,1,5.515,5.231,5.443,5.443,0,0,1-2.841,4.724l3.951,11.819Z" transform="translate(-848.127 -1017.945)"/><path class="f" d="M903.036,917.9a3.963,3.963,0,0,1-4.1-3.914,15.371,15.371,0,0,0-15.857-15.131c-8.785.113-15.955,7.129-15.955,15.639a4.17,4.17,0,0,1-4.16,4.078,4.012,4.012,0,0,1-4.167-3.942c0-12.952,10.922-23.612,24.283-23.761,13.291-.149,24.046,10.165,24.046,22.991a4.118,4.118,0,0,1-4.089,4.039Z" transform="translate(-856.788 -890.863)"/></g></g><g transform="translate(0 206.023)"><path class="q" d="M1352.118,1851.445s-1.451-5.442-.424-6.833,7.316-6.953,6.711-5.14a11.666,11.666,0,0,1-1.512,3.025s3.386,1.573,1.209,3.93-2.9,2.9-3.025,5.018S1353.569,1854.286,1352.118,1851.445Z" transform="translate(-1201.663 -1802.742)"/><path class="r" d="M1032.239,3150.29a48.462,48.462,0,0,0-.671,6.381c.1,1.675,18.684,2.531,18.872,1.276s-3.073-3.25-5.367-3.954-9.01-2.583-9.01-2.583Z" transform="translate(-942.19 -2866.699)"/><path class="s" d="M1034.967,3124.583l-.593,5.852s-2.159,1.426-4.062.325l-.952-6.369Z" transform="translate(-940.404 -2845.679)"/><path class="t" d="M856.359,3190.754a48.516,48.516,0,0,0-.671,6.381c.1,1.675,18.685,2.531,18.873,1.276s-3.073-3.249-5.367-3.954-9.01-2.584-9.01-2.584Z" transform="translate(-799.47 -2899.534)"/><path class="u" d="M859.09,3165.042l-.593,5.853s-2.159,1.427-4.062.325l-.951-6.369Z" transform="translate(-797.685 -2878.513)"/><path class="v" d="M935.793,2304.426l6.446,13.066c1.728,24.857,2.587,51.886,2.035,80.792-.41,21.505-1.558,41.878-3.208,61l-8.739-.4a87.171,87.171,0,0,1-9.643-36.664c-.477-16.308,4.467-18.474,4.153-34.088-.407-20.238-8.891-25.638-13.415-49.982a130.351,130.351,0,0,1-1.51-36.222Z" transform="translate(-844.602 -2178.299)"/><path class="w" d="M911.91,2301.934l12.9,1.346c7.739,13.468,9.9,27.485,8.542,33.685-1.925,8.773-7,11.582-6.724,20.391.275,8.715,5.408,10.975,8.668,21.246,2.254,7.112,1.659,13.651.377,26.439-2.583,25.757-8.8,33.64-3.593,42.081,1.48,2.4,4.148,5.257,9.374,7.439-.128,1.579-.254,3.164-.389,4.727l-8.739-.4a87.179,87.179,0,0,1-9.643-36.665c-.477-16.308,4.467-18.474,4.153-34.088-.407-20.238-8.891-25.637-13.415-49.981a130.35,130.35,0,0,1-1.509-36.22Z" transform="translate(-844.602 -2178.299)"/><path class="x" d="M812.119,2330.229c-4.033,21.991-7.595,45.528-10.375,70.487-3.356,30.139-5.147,58.553-5.851,84.933l-9.591.275C773.7,2461,772.933,2444.1,774.753,2433.1a159.088,159.088,0,0,0,3.035-24.976,175.584,175.584,0,0,0-.94-23.174c-1.512-17.371-3.349-21.164-3.613-34.45-.247-12.466-.3-18.78,3.26-22.463C785.87,2318.335,810.268,2329.37,812.119,2330.229Z" transform="translate(-732.487 -2196.26)"/><path class="y" d="M1075.442,1837.142l6.379-.445c5.017,20.27,1.418,39.933-9.9,47.164-17.691,11.3-50.561-9.991-57.684-33.165-3.126-10.174-2.415-24.855,3.834-27.707,1.734-.792,4.426-.917,10.258,2.359,17.416,9.778,17.874,28.259,26.728,29.825C1058.99,1855.866,1065.347,1853.358,1075.442,1837.142Z" transform="translate(-926.661 -1789.277)"/><path class="z" d="M752.54,1923.709c3.063-5.083-.784-9.986-1.66-19.615-.993-10.914,3.208-12.732,7.37-30.82,2.766-12.03,5.42-23.578,2.251-37.1-1.518-6.479-4.094-17.468-13.188-22.775-4.693-2.739-11.1-2.465-23.725-1.8-15.611.817-23.417,1.225-29.24,4.29-.852.449-18.561,10.083-19.78,25.783-1.241,15.98,16.163,18.129,18.484,39.44,1.042,9.567-.815,24.281-2.016,33.823-1.157,9.166-1.952,11.51-.144,14.284,4.359,6.691,17.7,4.781,44.39.97C745.747,1928.694,750.254,1927.5,752.54,1923.709Z" transform="translate(-652.456 -1780.056)"/><path class="aa" d="M711.933,1960c-1.128,4.154-5.187,7.257-8.012,17.359-.61,2.181-4.954,17.715.681,21.54,3.256,2.208,6.177-1.975,14.077-2.521,13.69-.947,20.21,10.558,29.148,7.416a12.245,12.245,0,0,0,5.644-4.379,9.036,9.036,0,0,1-.938,6.613c-2.286,3.793-6.791,4.984-17.26,6.479-26.687,3.81-40.031,5.717-44.39-.97-1.808-2.775-1.008-5.121.144-14.285,1.2-9.544,3.062-24.257,2.017-33.823-2.321-21.311-19.725-23.46-18.484-39.44a24.788,24.788,0,0,1,4-11.388C700.652,1921.534,715.481,1946.946,711.933,1960Z" transform="translate(-652.455 -1862.372)"/><path class="ab" d="M725.115,2327.226l4.417,2.821a10.34,10.34,0,0,1,5.5-3.392c3.23-.709,6.938.308,7.024,1.339.07.825-2.189,1.659-2.538,1.787-2.819,1.04-4.909.176-6.05,1.309a8.616,8.616,0,0,1-2.06,1.833,6.274,6.274,0,0,1-.788.406c-1.881.733-5.107-2.542-5.385-2.829Z" transform="translate(-693.523 -2198.164)"/><path class="ac" d="M602.183,1865.194c3.2-7.653,5.408-19.371.367-36.772-33.256,13.108-50.216,44.169-43.594,68.794,5.459,20.3,25.32,30.189,29.751,32.265l3.093-7.039c-5.133-5.718-10.92-14.172-10.1-23.819C582.827,1885.253,595.713,1880.688,602.183,1865.194Z" transform="translate(-557.54 -1794.067)"/><path class="ad" d="M868.61,1730a35.6,35.6,0,0,1-2.069,10.174c-1.631,3.942-10.216,6.416-11.955,7.292s3.26,3.448,8.281,3.953,19.359-.635,21.944-2.539-2.077-1.76-5.661-3.076-5.655-8.325-5.023-11.505S868.61,1730,868.61,1730Z" transform="translate(-798.296 -1714.199)"/><path class="ae" d="M912.264,1659.9c2.6-2.559,2.969-2.859,3.253-3.743,1.138-3.551-1.616-8.415-5.225-9.612-.183-.062-2.611-.838-3.535.214-.786.893.367,2.126-.183,3.85-.514,1.611-1.91,1.731-4.5,3.843-2.132,1.742-3.457,2.82-3.758,4.342-.63,3.136,3.166,7.68,6.526,7.557C906.048,1666.3,906.378,1665.684,912.264,1659.9Z" transform="translate(-834.009 -1646.211)"/><g transform="translate(68.172 11.426)"><path class="af" d="M922.112,1715.99a7.4,7.4,0,0,0,6.988,2.1c3.777-.928,2.813-9.6.05-10.982a4.9,4.9,0,0,0-3.858.183c-.744.358-.951.733-2.179,1.293-1.132.519-1.491.446-1.8.812-.381.458-.545,1.439.649,3.812a2.108,2.108,0,0,0-2.354-.334,1.326,1.326,0,0,0-.421.586C918.827,1714.535,919.947,1715.626,922.112,1715.99Z" transform="translate(-919.124 -1706.796)"/></g></g><g transform="translate(141.073 109.249)"><path class="ag" d="M1559.883,1133.022l.975,5.261h0l-20.068.048-174.143.413a9.684,9.684,0,0,0-9.214,8.271l-41.571,277.834c-.619,4.6,6.54,11.618,10.993,11.962l77.258,5.937v-.092l115.565,8.866h.006l.28.116a9.487,9.487,0,0,0,10.1-8.057s0,.021,0,.019L1569,1146.969C1569.629,1142.15,1564.845,1133.008,1559.883,1133.022Z" transform="translate(-1315.684 -1132.518)"/><g transform="translate(0 0)"><path class="ah" d="M1525.645,1435.661a9.524,9.524,0,0,1-10.1,8.111l-193.307-14.843a7.692,7.692,0,0,1-6.93-8.946L1353.1,1139.2a9.685,9.685,0,0,1,9.209-8.272l194.4-.535a7.572,7.572,0,0,1,7.848,8.688Z" transform="translate(-1315.203 -1130.383)"/><path class="f" d="M1675.714,1780.238a4.886,4.886,0,0,1-5.019,4.112l-170.134-6.209a3.616,3.616,0,0,1-3.517-4.228l3.345-24.793a4.455,4.455,0,0,1,4.606-3.789l170.281,4.73c2.458.068,4.2,1.8,3.884,4.209Z" transform="translate(-1462.704 -1629.375)"/><path class="f" d="M1641.405,2033.832a5.058,5.058,0,0,1-5.02,4.346l-170-8.4a3.9,3.9,0,0,1-3.5-4.559l3.371-25.272a4.789,4.789,0,0,1,4.623-4.179l170.108,6.861a4.129,4.129,0,0,1,3.875,4.729Z" transform="translate(-1434.985 -1832.595)"/><path class="ai" d="M1679.166,1754.174a4.638,4.638,0,0,0-1.3-.215l-170.286-4.726a4.449,4.449,0,0,0-4.6,3.785l-3.35,24.793c-.006.065-.013.124-.019.188a3.613,3.613,0,0,1-2.578-4.084l3.349-24.793a4.449,4.449,0,0,1,4.6-3.785l170.286,4.726C1677.686,1750.136,1679.419,1751.817,1679.166,1754.174Z" transform="translate(-1462.696 -1629.381)"/><path class="ai" d="M1644.89,2006.79a4,4,0,0,0-1.317-.275l-170.1-6.869a4.789,4.789,0,0,0-4.622,4.182l-3.376,25.273a4.078,4.078,0,0,0-.032.48,3.991,3.991,0,0,1-2.567-4.376l3.376-25.273a4.788,4.788,0,0,1,4.622-4.182l170.1,6.863a4.114,4.114,0,0,1,3.917,4.177Z" transform="translate(-1434.977 -1832.58)"/><path class="aj" d="M1717.271,2360.015a6.558,6.558,0,0,0-6.008-7.527l-88.005-5.053c-3.643-.209-7.01,2.86-7.506,6.564l-3.633,27.375c-.5,3.708,2.033,7.257,5.675,7.506l87.961,6.018c3.819.261,7.338-2.964,7.842-6.772Z" transform="translate(-1556.063 -2117.949)"/><g transform="translate(101.893 24.608)"><path class="ak" d="M1921.622,1293.895a38.093,38.093,0,0,1-37.441,32.356,28.761,28.761,0,0,1-22.365-10.688,29.337,29.337,0,0,1-5.824-22.374c2.389-17.9,18.833-32.367,36.88-32.325C1911.09,1260.908,1924.033,1275.695,1921.622,1293.895Z" transform="translate(-1855.661 -1260.864)"/><g transform="translate(6.154 8.824)"><path class="f" d="M1989.477,1321.956a16.526,16.526,0,0,1-16.132,14.024,12.256,12.256,0,0,1-12.269-14.263,16.539,16.539,0,0,1,16.029-14.024,12.255,12.255,0,0,1,12.372,14.263Z" transform="translate(-1947.22 -1307.69)"/><path class="f" d="M1935.9,1494.349a37.022,37.022,0,0,1-25.4,9.9,28.762,28.762,0,0,1-22.365-10.688c5.808-8.092,15.384-13.474,25.558-13.339C1923.929,1480.351,1932.172,1486.018,1935.9,1494.349Z" transform="translate(-1888.142 -1447.681)"/></g></g><path class="al" d="M1848.168,1139.081l-38.91,296.583c-.642,4.858-5.452,8.469-10.383,8.089l-116.1-8.915a61.865,61.865,0,0,1-13.3-20.555,63.454,63.454,0,0,1-3.532-12.815c-2.155-12.523-1.32-26.758,1.823-40.732a134.5,134.5,0,0,1,11.058-30.958,101.631,101.631,0,0,1,13.539-20.551c3.666-4.236,7.638-8.354,11.824-12.391,5.048-4.871,10.412-9.624,15.949-14.339,12.894-10.986,26.7-21.724,39.487-33.071,29.5-26.167,53.426-55.405,47.669-97.124-.183-1.313-1.982-11.377-4.278-21.808l37.023-.1C1844.991,1130.381,1848.8,1134.271,1848.168,1139.081Z" transform="translate(-1598.816 -1130.386)"/></g></g></g></g></svg>
